<svg xmlns="http://www.w3.org/2000/svg" class="editor-view__logo-preview" data-v-04588dbe="" data-v-0a059b40="" width="252.21665954589844" height="54" viewBox="0 0 252.21665954589844 54"><svg id="mark" viewBox="0 0 32 32" width="54" height="54" style="fill: rgb(47, 196, 219);" x="0" y="0" data-v-04588dbe=""><rect x="0" y="0" width="100%" height="100%" fill="none" data-v-04588dbe=""></rect><g data-v-04588dbe=""><g xmlns="http://www.w3.org/2000/svg"><g><polygon points="9.382,8.675 23.325,8.675 23.325,22.618 32,31.293 32,0 0.707,0   "></polygon><polygon points="22.618,23.325 8.675,23.325 8.675,9.382 0,0.707 0,32 31.293,32   "></polygon></g></g></g></svg><svg id="name" viewBox="0 0 182.203125 34.94921875" width="182.203125" height="34.94921875" style="fill: rgb(245, 240, 240);" x="70" y="9.525001525878906" data-v-04588dbe=""><rect x="0" y="0" width="100%" height="100%" fill="none" data-v-04588dbe=""></rect><g data-v-04588dbe=""><path xmlns="http://www.w3.org/2000/svg" d="M19.92 23.61L26.66 23.61Q26.28 28.88 22.76 31.92Q19.25 34.95 13.50 34.95L13.50 34.95Q7.21 34.95 3.60 30.72Q0 26.48 0 19.09L0 19.09L0 17.09Q0 12.38 1.66 8.78Q3.32 5.19 6.41 3.27Q9.50 1.35 13.59 1.35L13.59 1.35Q19.25 1.35 22.71 4.38Q26.17 7.41 26.71 12.89L26.71 12.89L19.97 12.89Q19.72 9.73 18.20 8.30Q16.69 6.87 13.59 6.87L13.59 6.87Q10.22 6.87 8.55 9.29Q6.87 11.70 6.83 16.78L6.83 16.78L6.83 19.25Q6.83 24.55 8.43 27.00Q10.04 29.45 13.50 29.45L13.50 29.45Q16.62 29.45 18.16 28.02Q19.70 26.59 19.92 23.61L19.92 23.61ZM51.30 34.50L44.74 34.50Q44.29 33.62 44.09 32.32L44.09 32.32Q41.73 34.95 37.96 34.95L37.96 34.95Q34.39 34.95 32.04 32.88Q29.69 30.82 29.69 27.67L29.69 27.67Q29.69 23.81 32.56 21.74Q35.42 19.68 40.83 19.65L40.83 19.65L43.82 19.65L43.82 18.26Q43.82 16.58 42.96 15.57Q42.09 14.55 40.23 14.55L40.23 14.55Q38.59 14.55 37.66 15.34Q36.72 16.13 36.72 17.50L36.72 17.50L30.23 17.50Q30.23 15.39 31.54 13.59Q32.84 11.79 35.22 10.77Q37.60 9.75 40.56 9.75L40.56 9.75Q45.06 9.75 47.70 12.01Q50.33 14.26 50.33 18.35L50.33 18.35L50.33 28.88Q50.36 32.34 51.30 34.12L51.30 34.12L51.30 34.50ZM39.37 29.99L39.37 29.99Q40.81 29.99 42.02 29.35Q43.24 28.71 43.82 27.63L43.82 27.63L43.82 23.45L41.40 23.45Q36.52 23.45 36.21 26.82L36.21 26.82L36.18 27.20Q36.18 28.41 37.04 29.20Q37.89 29.99 39.37 29.99ZM70.39 34.50L64.15 24.75L61.81 27.09L61.81 34.50L55.32 34.50L55.32 0L61.81 0L61.81 19.11L63.07 17.50L69.29 10.20L77.09 10.20L68.30 20.33L77.85 34.50L70.39 34.50ZM93.03 34.50L80.32 34.50L80.32 1.80L91.78 1.80Q97.73 1.80 100.80 4.08Q103.88 6.36 103.88 10.76L103.88 10.76Q103.88 13.16 102.65 14.99Q101.41 16.82 99.21 17.68L99.21 17.68Q101.73 18.31 103.17 20.21Q104.62 22.12 104.62 24.89L104.62 24.89Q104.62 29.60 101.61 32.03Q98.60 34.46 93.03 34.50L93.03 34.50ZM93.24 20.26L87.06 20.26L87.06 29.09L92.83 29.09Q95.21 29.09 96.55 27.95Q97.88 26.82 97.88 24.82L97.88 24.82Q97.88 20.33 93.24 20.26L93.24 20.26ZM87.06 7.25L87.06 15.50L92.04 15.50Q97.14 15.41 97.14 11.43L97.14 11.43Q97.14 9.21 95.85 8.23Q94.56 7.25 91.78 7.25L91.78 7.25L87.06 7.25ZM129.89 34.50L123.33 34.50Q122.88 33.62 122.68 32.32L122.68 32.32Q120.32 34.95 116.55 34.95L116.55 34.95Q112.98 34.95 110.63 32.88Q108.28 30.82 108.28 27.67L108.28 27.67Q108.28 23.81 111.15 21.74Q114.01 19.68 119.42 19.65L119.42 19.65L122.41 19.65L122.41 18.26Q122.41 16.58 121.55 15.57Q120.68 14.55 118.82 14.55L118.82 14.55Q117.18 14.55 116.25 15.34Q115.31 16.13 115.31 17.50L115.31 17.50L108.82 17.50Q108.82 15.39 110.13 13.59Q111.43 11.79 113.81 10.77Q116.19 9.75 119.16 9.75L119.16 9.75Q123.65 9.75 126.29 12.01Q128.93 14.26 128.93 18.35L128.93 18.35L128.93 28.88Q128.95 32.34 129.89 34.12L129.89 34.12L129.89 34.50ZM117.96 29.99L117.96 29.99Q119.40 29.99 120.62 29.35Q121.83 28.71 122.41 27.63L122.41 27.63L122.41 23.45L119.99 23.45Q115.11 23.45 114.80 26.82L114.80 26.82L114.78 27.20Q114.78 28.41 115.63 29.20Q116.48 29.99 117.96 29.99ZM133.78 10.20L139.89 10.20L140.09 13.00Q142.69 9.75 147.07 9.75L147.07 9.75Q150.94 9.75 152.82 12.02Q154.71 14.29 154.76 18.80L154.76 18.80L154.76 34.50L148.26 34.50L148.26 18.96Q148.26 16.89 147.37 15.96Q146.47 15.03 144.38 15.03L144.38 15.03Q141.64 15.03 140.27 17.36L140.27 17.36L140.27 34.50L133.78 34.50L133.78 10.20ZM174.75 34.50L168.50 24.75L166.17 27.09L166.17 34.50L159.67 34.50L159.67 0L166.17 0L166.17 19.11L167.42 17.50L173.65 10.20L181.44 10.20L172.66 20.33L182.20 34.50L174.75 34.50Z"></path></g></svg><svg id="slogan" viewBox="0 0 0 0" width="0" height="NaN" style="fill: rgba(36, 224, 188, 0.04);" x="70" y="48.474998474121094" data-v-04588dbe=""><rect x="0" y="0" width="100%" height="100%" fill="none" data-v-04588dbe=""></rect><g data-v-04588dbe=""><path xmlns="http://www.w3.org/2000/svg" d=""></path></g></svg></svg>